# AST/ASF file generated using VICON BodyLanguage
# -----------------------------------------------
:version 1.10
:name VICON
:units
  mass 1.0
  length 0.45
  angle deg
:documentation
   .ast/.asf automatically generated from VICON data using
   VICON BodyBuilder and BodyLanguage model FoxedUp or BRILLIANT.MOD
:root
   order TX TY TZ RX RY RZ
   axis XYZ
   position 0 0 0  
   orientation 0 0 0 
:bonedata
  begin
     id 1 
     name lhipjoint
     direction 0.578396 -0.714046 0.394458 
     length 2.21935 
     axis 0 0 0  XYZ
  end
  begin
     id 2 
     name lfemur
     direction 0.34202 -0.939693 0  
     length 6.39105  
     axis 0 0 20  XYZ
    dof rx ry rz
    limits (-160.0 20.0)
           (-70.0 70.0)
           (-60.0 70.0)
  end
  begin
     id 3 
     name ltibia
     direction 0.34202 -0.939693 0   
     length 6.99037   
     axis 0 0 20   XYZ
    dof rx
    limits (-10.0 170.0)
  end
  begin
     id 4 
     name lfoot
     direction 0.0582372 -0.160005 0.985397   
     length 2.06111   
     axis -90 7.62852e-016 20   XYZ
    dof rx rz
    limits (-45.0 90.0)
           (-70.0 20.0)
  end
  begin
     id 5 
     name ltoes
     direction 1.53556e-011 -4.21875e-011 1   
     length 1.04074   
     axis -90 7.62852e-016 20   XYZ
    dof rx
    limits (-90.0 20.0)
  end
  begin
     id 6 
     name rhipjoint
     direction -0.558179 -0.726269 0.40121   
     length 2.182  
     axis 0 0 0  XYZ 
  end
  begin
     id 7 
     name rfemur
     direction -0.34202 -0.939693 0   
     length 6.51172   
     axis 0 0 -20   XYZ
    dof rx ry rz
    limits (-160.0 20.0)
           (-70.0 70.0)
           (-70.0 60.0)
  end
  begin
     id 8 
     name rtibia
     direction -0.34202 -0.939693 0   
     length 7.02607   
     axis 0 0 -20   XYZ
    dof rx
    limits (-10.0 170.0)
 end
 begin
     id 9 
     name rfoot
     direction -0.0788856 -0.216737 0.973038   
     length 1.96734  
     axis -90 -7.62852e-016 -20   XYZ
    dof rx rz
    limits (-45.0 90.0)
           (-20.0 70.0)
  end
  begin
     id 10 
     name rtoes
     direction -1.53567e-011 -4.21783e-011 1   
     length 0.990825   
     axis -90 -7.62852e-016 -20   XYZ
    dof rx
    limits (-90.0 20.0)
  end
  begin
     id 11 
     name lowerback
     direction 0.00668177 0.999323 -0.0361741   
     length 1.7655   
     axis 0 0 0   XYZ
    dof rx ry rz
    limits (-20.0 45.0)
           (-30.0 30.0)
           (-30.0 30.0)
  end
  begin
     id 12 
     name upperback
     direction -0.00222086 0.99851 0.0545167   
     length 1.74912   
     axis 0 0 0   XYZ
    dof rx ry rz
    limits (-20.0 45.0)
           (-30.0 30.0)
           (-30.0 30.0)
  end
  begin
     id 13 
     name thorax
     direction -0.00733971 0.997496 0.0703443   
     length 1.75715   
     axis 0 0 0   XYZ
    dof rx ry rz
    limits (-20.0 45.0)
           (-30.0 30.0)
           (-30.0 30.0)
  end
  begin
     id 14 
     name lowerneck
     direction 0.0279797 0.994795 0.0979765   
     length 1.46939   
     axis 0 0 0   XYZ
    dof rx ry rz
    limits (-20.0 45.0)
           (-30.0 30.0)
           (-30.0 30.0)
  end
  begin
     id 15 
     name upperneck
     direction 0.00339187 0.976776 -0.214238   
     length 1.48018   
     axis 0 0 0   XYZ
    dof rx ry rz
    limits (-20.0 45.0)
           (-30.0 30.0)
           (-30.0 30.0)
  end
  begin
     id 16
     name head
     direction -0.00263506 0.996603 -0.0823096  
     length 1.4976  
     axis 0 0 0   XYZ
    dof rx ry rz
    limits (-20.0 45.0)
           (-30.0 30.0)
           (-30.0 30.0)
  end
  begin
     id 17 
     name lclavicle
     direction 0.894044 0.44508 -0.0508781  
     length 3.03024  
     axis 0 0 0   XYZ
    dof ry rz
    limits (-20.0 10.0)
           (0.0 20.0)
  end
  begin
     id 18 
     name lhumerus
     direction 1 -4.48961e-011 -2.39475e-018   
     length 4.4661   
     axis 180 -30 -90   XYZ
    dof rx ry rz
    limits (-60.0 90.0)
           (-90.0 90.0)
           (-90.0 90.0)
  end
  begin
     id 19
     name lradius
     direction 1 -4.48961e-011 9.29328e-028   
     length 3.41414   
     axis 180 -30 -90   XYZ
    dof rx
    limits (-10.0 170.0)
  end
  begin
     id 20
     name lwrist
     direction 1 -4.48985e-011 1.53461e-026   
     length 1.70707   
     axis -1.09697e-014 90 90   XYZ
    dof ry
    limits (-180.0 0.0)
 end
  begin
     id 21 
     name lhand
     direction 1 -4.48966e-011 3.06923e-026   
     length 0.328298   
     axis -1.95843e-014 90 90   XYZ
    dof rx rz
    limits (-90.0 90.0)
           (-45.0 45.0)
  end
  begin
     id 22 
     name lfingers
     direction 1 -4.48893e-011 6.13845e-026   
     length 0.264682   
     axis -3.91686e-014 90 90   XYZ
    dof rx
    limits (0.0 90.0)
  end
  begin
     id 23
     name lthumb
     direction 0.707107 -6.34876e-011 0.707107   
     length 0.380032   
     axis -90 45 2.85299e-015   XYZ
    dof rx rz
    limits (-45.0 45.0)
           (-45.0 45.0)
  end
  begin
     id 24 
     name rclavicle
     direction -0.936955 0.347862 -0.0332887   
     length 3.26927  
     axis 0 0 0   XYZ 
    dof ry rz
    limits (-10.0 20.0)
           (-20.0 0.0)
  end
  begin
     id 25 
     name rhumerus
     direction -1 -4.4896e-011 1.78637e-018  
     length 4.40431   
     axis 180 30 90   XYZ
    dof rx ry rz
    limits (-90.0 60.0)
           (-90.0 90.0)
           (-90.0 90.0)
  end
  begin
     id 26 
     name rradius
     direction -1 -4.48955e-011 9.34036e-027   
     length 3.04688   
     axis 180 30 90   XYZ
    dof rx
    limits (-10.0 170.0)
  end
  begin
     id 27 
     name rwrist
     direction -1 -4.49011e-011 1.53461e-026   
     length 1.52344   
     axis -1.09697e-014 -90 -90   XYZ
    dof ry
    limits (-180.0 0.0)
  end
  begin
     id 28
     name rhand
     direction -1 -4.48834e-011 3.06923e-026   
     length 0.500489   
     axis -1.95843e-014 -90 -90   XYZ
    dof rx rz
    limits (-90.0 90.0)
           (-45.0 45.0)
  end
  begin
     id 29
     name rfingers
     direction -1 -4.48967e-011 6.13845e-026   
     length 0.403507   
     axis -3.91686e-014 -90 -90   XYZ
    dof rx
    limits (0.0 90.0)
  end
  begin
     id 30
     name rthumb
     direction -0.707107 -6.34826e-011 0.707107   
     length 0.579358   
     axis -90 -45 -2.85299e-015   XYZ
    dof rx rz
    limits (-45.0 45.0)
           (-45.0 45.0)
  end
:hierarchy
  begin
    root lhipjoint rhipjoint lowerback
    lhipjoint lfemur
    lfemur ltibia
    ltibia lfoot
    lfoot ltoes
    rhipjoint rfemur
    rfemur rtibia
    rtibia rfoot
    rfoot rtoes
    lowerback upperback
    upperback thorax
    thorax lowerneck lclavicle rclavicle
    lowerneck upperneck
    upperneck head
    lclavicle lhumerus
    lhumerus lradius
    lradius lwrist
    lwrist lhand lthumb
    lhand lfingers
    rclavicle rhumerus
    rhumerus rradius
    rradius rwrist
    rwrist rhand rthumb
    rhand rfingers
  end

#!OML:ASF H:\IndianDance\Patient Classification 1\Patient 1\Session 1\dancer.ASF
:FULLY-SPECIFIED
:DEGREES
1
root 2.64442 15.5934 8.07725 -171.317 4.31727 -174
lowerback 4.83113 2.21838 0.571937
upperback -1.96378 3.07343 1.05611
thorax -4.76789 1.53409 0.497586
lowerneck -21.3785 1.58881 0.751933
upperneck 26.5153 -0.773906 5.89027
head 12.3783 0.188614 1.90892
rclavicle 1.27719e-014 3.18055e-015
rhumerus -50.5253 -5.6118 -83.0731
rradius 53.5582
rwrist -28.2357
rhand -17.8998 -5.57295
rfingers 7.12502
rthumb 8.36707 -35.3872
lclavicle 1.27719e-014 3.18055e-015
lhumerus -36.6501 -21.2937 91.105
lradius 39.8042
lwrist 12.7445
lhand -17.7738 12.5146
lfingers 7.12502
lthumb 8.48862 42.324
rfemur -18.164 -1.37711 22.0284
rtibia 39.4499
rfoot -14.1843 3.38369
rtoes -1.68719
lfemur -29.4068 7.52469 -13.0644
ltibia 34.5347
lfoot -7.82256 2.63575
ltoes 3.36679
2
root 2.59154 15.6021 8.04925 -171.162 4.78671 -174.111
lowerback 4.88374 2.20392 0.575847
upperback -2.01274 3.0491 0.952747
thorax -4.84258 1.51895 0.387577
lowerneck -21.3468 1.63931 0.782606
upperneck 26.3487 -0.676327 5.85909
head 12.3021 0.233553 1.90491
rclavicle 3.62782e-015 -1.23246e-014
rhumerus -51.1937 -3.88561 -84.0444
rradius 56.0921
rwrist -28.2602
rhand -15.1297 -4.25358
rfingers 7.12502
rthumb 11.0396 -33.9433
lclavicle 3.62782e-015 -1.23246e-014
lhumerus -38.7213 -25.2252 92.2025
lradius 44.1065
lwrist 14.3625
lhand -16.9601 11.0979
lfingers 7.12502
lthumb 9.27384 40.874
rfemur -18.5236 -1.79723 21.615
rtibia 39.7683
rfoot -13.9091 4.00211
rtoes -1.89239
lfemur -29.2478 7.27468 -13.3471
ltibia 34.366
lfoot -7.84933 3.34401
ltoes 3.3075
3
root 2.55754 15.6097 8.02787 -170.939 5.01982 -174.102
lowerback 4.91476 2.15959 0.488251
upperback -2.09784 2.9847 0.926542
thorax -4.95169 1.48904 0.4119
lowerneck -21.3151 1.64144 0.776634
upperneck 26.1986 -0.649613 5.86086
head 12.2353 0.246664 1.90799
rclavicle 9.74045e-015 5.1684e-015
rhumerus -51.9726 -2.81672 -85.2276
rradius 58.7581
rwrist -27.7354
rhand -12.6685 -2.66505
rfingers 7.12502
rthumb 13.4127 -32.2133
lclavicle 9.74045e-015 5.1684e-015
lhumerus -40.7584 -28.8145 93.2088
lradius 48.5366
lwrist 14.947
lhand -15.6668 10.4847
lfingers 7.12502
lthumb 10.5216 40.2013
rfemur -18.9044 -2.20517 21.4767
rtibia 40.0511
rfoot -13.5932 4.38205
rtoes -1.00564
lfemur -29.3374 7.6755 -13.5482
ltibia 34.2958
lfoot -7.90773 3.14373
ltoes 3.24755
4
root 2.51552 15.6174 8.00373 -170.711 5.39742 -174.181
lowerback 4.8584 2.11133 0.354661
upperback -2.16057 2.90924 0.885006
thorax -4.98905 1.45514 0.451281
lowerneck -21.3263 1.70733 0.806913
upperneck 26.0912 -0.538597 5.82861
head 12.1911 0.297652 1.90744
rclavicle -1.69961e-014 1.43125e-014
rhumerus -52.2086 0.774148 -86.1051
rradius 61.4676
rwrist -29.3841
rhand -16.9271 2.40082
rfingers 7.12502
rthumb 9.30572 -27.3738
lclavicle -1.69961e-014 1.43125e-014
lhumerus -42.6816 -31.9529 94.093
lradius 53.0093
lwrist 15.2713
lhand -14.1332 9.13918
lfingers 7.12502
lthumb 12.0006 38.7751
rfemur -19.3011 -2.5238 21.2008
rtibia 40.3207
rfoot -13.3692 4.60515
rtoes -1.01532
lfemur -29.3914 7.80694 -13.8383
ltibia 34.2411
lfoot -7.98995 3.35607
ltoes 3.70886
5
root 2.481 15.6196 7.9845 -170.615 5.73185 -174.051
lowerback 4.86447 2.13383 0.417673
upperback -2.19591 2.94428 0.872684
thorax -5.02586 1.47039 0.399101
lowerneck -21.3007 1.70065 0.845227
upperneck 26.0794 -0.555625 5.80141
head 12.182 0.288404 1.88692
rclavicle 2.37051e-014 1.27222e-014
rhumerus -52.686 3.32535 -87.7859
rradius 64.5998
rwrist -30.2211
rhand -10.3342 -0.189521
rfingers 7.12502
rthumb 15.6618 -29.5756
lclavicle 2.37051e-014 1.27222e-014
lhumerus -44.5317 -35.682 95.2348
lradius 57.4895
lwrist 16.6129
lhand -12.3421 9.01349
lfingers 7.12502
lthumb 13.7273 38.5407
rfemur -19.4932 -2.85857 21.2418
rtibia 40.5662
rfoot -13.2851 4.44489
rtoes -1.10984
lfemur -29.3653 8.19056 -13.8912
ltibia 34.2518
lfoot -8.04076 3.31668
ltoes 3.57615
6
root 2.44374 15.6238 7.9635 -170.457 6.07919 -174.01
lowerback 4.83436 2.13164 0.399608
upperback -2.24864 2.93953 0.841681
thorax -5.06301 1.4682 0.37757
lowerneck -21.2765 0.672159 1.26597
upperneck 26.1413 -0.179876 5.42401
head 12.1863 1.13711 1.88387
rclavicle 5.41688e-015 4.77083e-015
rhumerus -53.182 5.73358 -88.9847
rradius 67.5351
rwrist -30.8612
rhand -8.4582 0.599678
rfingers 7.12502
rthumb 17.4679 -28.6355
lclavicle 5.41688e-015 4.77083e-015
lhumerus -46.2214 -38.5625 95.9212
lradius 61.8616
lwrist 17.0059
lhand -10.6429 8.20548
lfingers 7.12502
lthumb 15.3644 37.6146
rfemur -19.7687 -3.2154 21.1587
rtibia 40.8035
rfoot -13.1308 4.42199
rtoes -1.29639
lfemur -29.4086 8.4578 -14.0407
ltibia 34.2866
lfoot -8.12852 3.37652
ltoes 3.70994
7
root 2.40788 15.6271 7.94392 -170.307 6.41745 -173.962
lowerback 4.78805 2.13667 0.381767
upperback -2.30132 2.94454 0.812301
thorax -5.09105 1.47101 0.357347
lowerneck -21.2614 0.676458 1.27376
upperneck 26.1249 -0.180192 5.42751
head 12.177 1.1364 1.88284
rclavicle 1.26228e-014 1.70955e-014
rhumerus -53.6301 8.17925 -90.1914
rradius 70.5249
rwrist -31.5517
rhand -6.6719 1.22902
rfingers 7.12502
rthumb 19.1864 -27.8446
lclavicle 1.26228e-014 1.70955e-014
lhumerus -47.766 -41.3357 96.5205
lradius 66.1999
lwrist 17.498
lhand -8.96924 7.67834
lfingers 7.12502
lthumb 16.9761 36.9565
rfemur -20.0227 -3.5895 21.1112
rtibia 41.0369
rfoot -13.0174 4.24549
rtoes -1.63714
lfemur -29.4697 8.73775 -14.178
ltibia 34.3562
lfoot -8.22089 3.41397
ltoes 3.82718
8
root 2.37259 15.6296 7.92562 -170.167 6.75256 -173.916
lowerback 4.72397 2.14991 0.363902
upperback -2.35477 2.96048 0.781353
thorax -5.10977 1.47933 0.335227
lowerneck -21.248 0.666959 1.26985
upperneck 26.1444 -0.195852 5.44001
head 12.1825 1.13136 1.88611
rclavicle -9.29318e-015 5.56597e-015
rhumerus -54.0076 10.6473 -91.3661
rradius 73.5381
rwrist -32.286
rhand -4.96962 1.72317
rfingers 7.12502
rthumb 20.8226 -27.1795
lclavicle -9.29318e-015 5.56597e-015
lhumerus -49.131 -44.0307 97.0136
lradius 70.4505
lwrist 18.1436
lhand -7.36398 7.33578
lfingers 7.12502
lthumb 18.5207 36.4741
rfemur -20.2635 -3.99414 21.0825
rtibia 41.2846
rfoot -12.9469 3.91511
rtoes -2.13337
lfemur -29.5271 8.99561 -14.3121
ltibia 34.4236
lfoot -8.29949 3.46489
ltoes 3.96381
9
root 2.33836 15.6316 7.90897 -170.039 7.07156 -173.877
lowerback 4.64888 2.16616 0.338856
upperback -2.41056 2.98011 0.751131
thorax -5.1251 1.48986 0.317937
lowerneck -21.2357 0.645686 1.25419
upperneck 26.1994 -0.222818 5.45668
head 12.2025 1.12297 1.89247
rclavicle 9.44227e-016 4.77083e-015
rhumerus -54.3023 13.0542 -92.5126
rradius 76.5309
rwrist -32.9857
rhand -3.13881 2.02927
rfingers 7.12502
rthumb 22.5807 -26.6701
lclavicle 9.44227e-016 4.77083e-015
lhumerus -50.2615 -46.6459 97.3604
lradius 74.5529
lwrist 18.8991
lhand -5.76456 7.14002
lfingers 7.12502
lthumb 20.0587 36.1246
rfemur -20.4852 -4.43822 21.0704
rtibia 41.5445
rfoot -12.901 3.43262
rtoes -2.57596
lfemur -29.5881 9.22469 -14.4445
ltibia 34.5004
lfoot -8.37032 3.52309
ltoes 4.09796
10
root 2.30512 15.6332 7.89406 -169.928 7.37182 -173.857
lowerback 4.56966 2.18197 0.297384
upperback -2.46696 2.99804 0.71922
thorax -5.13945 1.50011 0.308396
lowerneck -21.2277 0.615106 1.22519
upperneck 26.2879 -0.257713 5.47793
head 12.2369 1.11241 1.90287
rclavicle -4.96962e-017 -2.78299e-015
rhumerus -54.4731 15.4588 -93.583
rradius 79.4726
rwrist -33.7184
rhand -1.691 2.38697
rfingers 7.12502
rthumb 23.9697 -26.1367
lclavicle -4.96962e-017 -2.78299e-015
lhumerus -51.1138 -49.1953 97.531
lradius 78.4732
lwrist 19.7712
lhand -4.23429 7.06696
lfingers 7.12502
lthumb 21.529 35.8904
rfemur -20.6823 -4.92834 21.0601
rtibia 41.8225
rfoot -12.8757 2.79367
rtoes -2.92456
lfemur -29.6428 9.40901 -14.5861
ltibia 34.5781
lfoot -8.43166 3.59836
ltoes 4.26761
11
root 2.27315 15.6347 7.88081 -169.845 7.65489 -173.847
lowerback 4.49753 2.19632 0.239901
upperback -2.52134 3.01338 0.693243
thorax -5.15687 1.50977 0.31391
lowerneck -21.2234 0.580006 1.19075
upperneck 26.4069 -0.293503 5.49203
head 12.284 1.10164 1.91251
rclavicle -2.67365e-014 -1.74931e-014
rhumerus -54.5047 17.8626 -94.5582
rradius 82.3376
rwrist -34.4956
rhand -0.317513 2.64828
rfingers 7.12502
rthumb 25.2862 -25.6958
lclavicle -2.67365e-014 -1.74931e-014
lhumerus -51.6387 -51.6706 97.4743
lradius 82.1797
lwrist 20.6884
lhand -2.79089 7.04947
lfingers 7.12502
lthumb 22.9146 35.7078
rfemur -20.8396 -5.45126 21.0567
rtibia 42.1217
rfoot -12.8656 2.01722
rtoes -3.00927
lfemur -29.6734 9.54776 -14.7242
ltibia 34.6495
lfoot -8.48325 3.69791
ltoes 4.43282
